<?xml version="1.0" standalone="no"?>
<!DOCTYPE svg PUBLIC "-//W3C//DTD SVG 20010904//EN"
 "http://www.w3.org/TR/2001/REC-SVG-20010904/DTD/svg10.dtd">
<svg version="1.0" xmlns="http://www.w3.org/2000/svg"
 width="600.000000pt" height="600.000000pt" viewBox="0 0 600.000000 600.000000"
 preserveAspectRatio="xMidYMid meet">
<metadata>
Created by potrace 1.14, written by Peter Selinger 2001-2017
</metadata>
<g transform="translate(0.000000,600.000000) scale(0.100000,-0.100000)"
fill="#000000" stroke="none">
<path d="M3226 4562 c-2 -1 -30 -5 -62 -7 -94 -7 -197 -16 -224 -20 -14 -2
-54 -7 -89 -10 -35 -3 -67 -7 -70 -9 -3 -2 -34 -7 -69 -10 -34 -4 -86 -11
-115 -17 -29 -5 -68 -12 -87 -15 -19 -3 -42 -7 -50 -9 -8 -2 -31 -7 -50 -10
-86 -15 -356 -81 -545 -135 -31 -8 -149 -47 -175 -57 -8 -4 -17 -7 -20 -8 -62
-16 -315 -118 -322 -129 -4 -6 -8 -8 -8 -3 0 4 -21 -3 -47 -16 -38 -19 -54
-22 -75 -15 -16 5 -28 13 -28 18 0 5 -10 12 -22 16 -13 4 -41 19 -63 34 -22
15 -83 54 -136 87 -90 57 -97 59 -108 41 -9 -15 -9 -22 3 -34 9 -8 18 -14 21
-14 6 0 46 -23 102 -61 23 -16 44 -29 48 -29 3 0 26 -13 50 -30 24 -16 48 -30
53 -30 5 0 17 -9 27 -20 10 -11 13 -20 7 -20 -6 0 -17 -2 -24 -5 -8 -3 -34 7
-58 23 -140 90 -210 132 -218 132 -5 0 -12 -9 -15 -20 -4 -15 13 -30 92 -77
53 -32 102 -64 109 -70 7 -7 19 -13 25 -13 18 0 -3 -15 -66 -50 -31 -17 -65
-29 -75 -26 -9 3 -28 7 -42 10 -14 2 -70 16 -125 30 -55 14 -101 26 -102 26
-2 0 -3 -10 -3 -22 0 -13 -14 -80 -31 -151 l-32 -127 -81 -67 c-143 -118 -327
-324 -377 -421 -8 -15 -16 -29 -19 -32 -23 -22 -96 -209 -116 -299 -22 -95 -3
-364 27 -395 5 -6 9 -17 9 -25 0 -24 86 -188 110 -211 3 -3 17 -21 32 -42 30
-40 179 -188 189 -188 3 0 17 -10 30 -21 67 -60 359 -229 396 -229 9 0 6 -12
-12 -38 -28 -42 -35 -75 -25 -112 3 -14 4 -36 0 -50 -9 -34 7 -76 37 -100 35
-27 114 -26 170 3 73 38 207 115 227 130 16 12 28 12 75 1 152 -34 198 -45
221 -49 14 -3 34 -7 45 -9 11 -2 40 -7 65 -11 25 -4 52 -9 60 -10 30 -5 159
-22 240 -30 72 -7 208 -17 287 -20 45 -2 86 -5 90 -8 5 -3 15 -2 22 3 8 4 25
5 40 1 14 -4 37 -5 51 -1 14 4 37 3 53 -1 16 -5 27 -4 27 2 0 6 7 6 19 0 10
-6 20 -9 22 -7 2 3 72 7 154 11 83 3 170 8 195 10 146 13 179 16 215 21 22 2
60 7 85 10 25 3 56 7 70 9 47 7 115 17 135 21 10 2 37 6 60 9 22 3 60 10 85
15 54 11 94 18 135 26 17 3 84 19 150 35 66 17 129 32 140 33 11 2 27 6 35 9
8 2 96 30 195 61 99 31 185 58 190 60 6 2 23 8 38 15 26 10 37 7 125 -46 54
-32 106 -63 117 -69 11 -6 44 -25 73 -42 29 -18 57 -32 62 -32 6 0 10 -4 10
-9 0 -5 8 -11 18 -14 9 -4 34 -16 54 -29 246 -153 293 -169 368 -127 43 25 48
40 45 156 -1 61 -6 77 -28 107 -26 33 -77 76 -92 76 -3 0 -25 13 -48 28 -23
16 -80 50 -127 77 -47 26 -103 59 -125 73 l-39 25 74 37 c91 45 190 99 210
114 8 7 32 21 53 31 20 11 37 23 37 28 0 9 15 7 145 -23 138 -32 199 -36 246
-14 56 25 68 54 64 150 -3 95 -6 102 -49 138 l-34 28 67 67 c80 81 115 122
160 187 19 27 37 51 40 54 17 15 105 193 124 250 58 174 59 373 3 528 -56 155
-170 312 -310 426 -21 17 -43 36 -50 41 -6 6 -33 26 -61 45 -27 18 -52 36 -55
39 -7 8 -49 31 -165 92 -55 28 -104 57 -108 65 -4 8 -18 13 -30 13 -22 -1 -80
18 -106 35 -9 6 -10 11 -2 15 8 5 7 13 -2 26 -13 17 -15 17 -43 1 -21 -13 -36
-15 -53 -8 -23 8 -21 11 37 46 59 35 74 57 52 71 -9 5 -85 -29 -100 -45 -3 -3
-18 -14 -34 -24 -30 -19 -46 -18 -136 8 -30 10 -65 19 -78 22 -12 2 -59 13
-105 24 -86 20 -101 23 -207 41 -78 13 -102 17 -155 23 -22 3 -53 7 -70 10
-39 7 -143 16 -225 21 -36 2 -67 5 -70 6 -8 4 -650 5 -654 1z"/>
</g>
</svg>
